<svg width="18" height="18" viewBox="0 0 18 18" fill="none" xmlns="http://www.w3.org/2000/svg" aria-label="Google App Store Icon" role="img"><path d="M8.99637 4.09718L9.32661 3.52742C9.52984 3.17177 9.98347 3.05202 10.3391 3.25524C10.6948 3.45847 10.8145 3.9121 10.6113 4.26774L7.43589 9.76573H9.73306C10.477 9.76573 10.8944 10.6403 10.5714 11.2464H3.83952C3.42944 11.2464 3.09919 10.9161 3.09919 10.506C3.09919 10.096 3.42944 9.76573 3.83952 9.76573H5.72661L8.14355 5.57782L7.38871 4.26774C7.18548 3.9121 7.30524 3.4621 7.66089 3.25524C8.01653 3.05202 8.46653 3.17177 8.67339 3.52742L8.99637 4.09718ZM6.14032 12.0085L5.42903 13.2423C5.22581 13.598 4.77218 13.7177 4.41653 13.5145C4.06089 13.3113 3.94113 12.8577 4.14435 12.502L4.67419 11.5875C5.26935 11.4024 5.75564 11.544 6.14032 12.0085ZM12.2698 9.76935H14.1968C14.6069 9.76935 14.9371 10.0996 14.9371 10.5097C14.9371 10.9198 14.6069 11.25 14.1968 11.25H13.1262L13.8484 12.502C14.0516 12.8577 13.9319 13.3077 13.5762 13.5145C13.2206 13.7177 12.7706 13.598 12.5637 13.2423C11.348 11.1339 10.4335 9.55524 9.82742 8.50282C9.20685 7.43226 9.6496 6.35806 10.0887 5.99516C10.575 6.82984 11.3008 8.08911 12.2698 9.76935ZM9 0C4.02823 0 0 4.02823 0 9C0 13.9718 4.02823 18 9 18C13.9718 18 18 13.9718 18 9C18 4.02823 13.9718 0 9 0ZM16.8387 9C16.8387 13.3077 13.3512 16.8387 9 16.8387C4.69234 16.8387 1.16129 13.3512 1.16129 9C1.16129 4.69234 4.64879 1.16129 9 1.16129C13.3077 1.16129 16.8387 4.64879 16.8387 9Z" fill="#000000"></path></svg>