<svg width="19" height="19" viewBox="0 0 19 19" fill="none" xmlns="http://www.w3.org/2000/svg" aria-label="Facebook" role="img"><path d="M16.8414 0.200001H2.11415C1.21006 0.200001 0.477783 0.932273 0.477783 1.83636V16.5636C0.477783 17.4677 1.21006 18.2 2.11415 18.2H10.296V10.8364H7.84142V8.38182H10.296V7.06373C10.296 4.56827 11.5118 3.47273 13.5859 3.47273C14.5791 3.47273 15.1044 3.54636 15.3531 3.57991V5.92727H13.9385C13.0581 5.92727 12.7505 6.392 12.7505 7.33291V8.38182H15.3311L14.9809 10.8364H12.7505V18.2H16.8414C17.7455 18.2 18.4778 17.4677 18.4778 16.5636V1.83636C18.4778 0.932273 17.7447 0.200001 16.8414 0.200001Z" fill="#000000"></path></svg>