<svg width="19" height="18" viewBox="0 0 19 18" fill="none" xmlns="http://www.w3.org/2000/svg" aria-label="Spotify" role="img"><path d="M9.27783 0C4.3153 0 0.277832 4.03746 0.277832 9C0.277832 13.9625 4.3153 18 9.27783 18C14.2404 18 18.2778 13.9629 18.2778 9C18.2778 4.03707 14.2404 0 9.27783 0ZM13.0873 13.0453C12.9742 13.215 12.788 13.3066 12.5983 13.3066C12.4864 13.3066 12.3734 13.2749 12.2733 13.208C11.306 12.563 9.66546 12.1327 8.29643 12.1331C6.8437 12.1339 5.75473 12.4906 5.74378 12.4942C5.43712 12.5982 5.10425 12.4308 5.00177 12.1233C4.89928 11.8159 5.06552 11.4834 5.37297 11.3813C5.4246 11.3641 6.65555 10.9608 8.29643 10.9601C9.66546 10.9593 11.5696 11.3285 12.9245 12.2317C13.1944 12.4116 13.2672 12.7758 13.0873 13.0453ZM14.2576 10.6436C14.1305 10.8478 13.911 10.9601 13.6869 10.9601C13.5656 10.9601 13.4428 10.9276 13.3325 10.8584C11.5786 9.76548 9.77616 9.53431 8.22329 9.548C6.47015 9.56365 5.06826 9.89808 5.0444 9.90512C4.68963 10.006 4.31647 9.79873 4.21516 9.44239C4.11385 9.08527 4.32155 8.71407 4.67828 8.61315C4.78663 8.58225 6.18578 8.23804 8.10125 8.222C9.84774 8.20753 12.0241 8.4606 14.0432 9.71854C14.3573 9.91412 14.4539 10.3287 14.2576 10.6436ZM15.4252 7.83515C15.2793 8.08314 15.018 8.22122 14.7496 8.22122C14.6151 8.22122 14.479 8.18641 14.3542 8.11365C12.31 6.9136 9.82466 6.65896 8.09968 6.65661C8.09147 6.65661 8.08326 6.65661 8.07504 6.65661C5.98903 6.65661 4.38257 7.02351 4.36654 7.02742C3.94488 7.12404 3.52517 6.86353 3.42738 6.44265C3.32959 6.02216 3.59049 5.60207 4.01098 5.50389C4.08334 5.48707 5.79971 5.09201 8.07504 5.09201C8.08404 5.09201 8.09303 5.09201 8.10203 5.09201C10.0206 5.09475 12.8001 5.38654 15.1467 6.76418C15.519 6.98322 15.6438 7.46278 15.4252 7.83515Z" fill="#000000"></path></svg>