<svg width="23" height="18" viewBox="0 0 23 18" fill="none" xmlns="http://www.w3.org/2000/svg" aria-label="Weibo" role="img"><path d="M16.7744 0.0077546C16.2718 -0.0175563 15.7656 0.0186022 15.2703 0.12346C14.811 0.221087 14.5073 0.676678 14.6049 1.13589C14.7026 1.59509 15.1582 1.89882 15.6174 1.80119C17.0312 1.50108 18.5715 1.92775 19.6092 3.07396C20.6433 4.22378 20.9218 5.80751 20.477 7.18151C20.3324 7.62987 20.5783 8.10716 21.0266 8.25179C21.4714 8.39642 21.9523 8.14693 22.0969 7.70219C22.7188 5.76773 22.3428 3.56209 20.882 1.94583C19.7864 0.734531 18.2858 0.0800707 16.7744 0.0077546ZM9.10892 2.55328C7.55774 2.71961 5.39188 3.92729 3.46827 5.8509C1.37472 7.94806 0.170654 10.179 0.170654 12.099C0.170654 15.7727 4.87482 18 9.48497 18C15.527 18 19.5514 14.4818 19.5514 11.694C19.5514 10.0091 18.1376 9.05088 16.8612 8.65676C16.5466 8.56275 16.3225 8.51936 16.4852 8.10716C16.8395 7.21405 16.8974 6.42942 16.5141 5.87982C15.7945 4.84932 13.7986 4.90355 11.5387 5.8509C11.5387 5.8509 10.8373 6.18355 11.0181 5.61948C11.3652 4.5022 11.3001 3.55848 10.7577 3.0161C10.3745 2.63283 9.81401 2.47735 9.10892 2.55328ZM16.6298 3.0161C16.3839 3.00526 16.1489 3.02334 15.9066 3.07396C15.5089 3.15712 15.2413 3.57294 15.3281 3.97068C15.4149 4.3648 15.8018 4.60706 16.1959 4.52028C16.6696 4.41904 17.2083 4.5709 17.5554 4.95418C17.9026 5.33745 17.993 5.85451 17.8447 6.31372C17.7218 6.69699 17.9243 7.11281 18.3075 7.23936C18.6908 7.3623 19.1102 7.15982 19.2332 6.77654C19.5369 5.83643 19.338 4.75892 18.6257 3.97068C18.0942 3.3813 17.3674 3.04865 16.6298 3.0161ZM9.97672 7.90467C13.0502 8.01315 15.5234 9.55348 15.7331 11.6651C15.9717 14.0805 13.1912 16.3367 9.51389 16.6983C5.83662 17.0599 2.63663 15.3822 2.39799 12.9668C2.15935 10.5514 4.96883 8.29518 8.6461 7.9336C9.10531 7.88659 9.53921 7.89021 9.97672 7.90467ZM8.5304 9.69811C7.19978 9.82467 5.94871 10.5948 5.37741 11.7519C4.60363 13.3248 5.34487 15.0857 7.113 15.657C8.94621 16.2463 11.1048 15.3315 11.8569 13.6321C12.5982 11.9725 11.6725 10.2803 9.86101 9.81382C9.4235 9.70173 8.97514 9.65472 8.5304 9.69811ZM9.36926 11.723C9.42711 11.723 9.45966 11.7302 9.51389 11.7519C9.73807 11.8351 9.83932 12.0809 9.71638 12.3015C9.58621 12.5221 9.30418 12.6233 9.08 12.5329C8.85943 12.4425 8.7835 12.2002 8.90644 11.9833C9.00407 11.8206 9.1957 11.7266 9.36926 11.723ZM7.6626 12.2436C7.81808 12.2473 7.98441 12.2689 8.12543 12.3304C8.70034 12.5763 8.88113 13.2344 8.5304 13.8057C8.17605 14.3733 7.42758 14.6445 6.85266 14.3842C6.2886 14.1275 6.12227 13.4622 6.47662 12.9089C6.74057 12.4967 7.19978 12.2364 7.6626 12.2436Z" fill="#000000"></path></svg>