<svg width="19" height="14" viewBox="0 0 19 14" fill="none" xmlns="http://www.w3.org/2000/svg" aria-label="YouTube" role="img"><path d="M17.7682 2.67053C17.5606 1.89953 16.9527 1.29162 16.1817 1.08404C14.7731 0.698544 9.13888 0.698544 9.13888 0.698544C9.13888 0.698544 3.50463 0.698544 2.09607 1.06922C1.3399 1.27679 0.717167 1.89953 0.50959 2.67053C0.138916 4.07909 0.138916 7 0.138916 7C0.138916 7 0.138916 9.93574 0.50959 11.3295C0.717167 12.1005 1.32507 12.7084 2.09607 12.916C3.51946 13.3015 9.13888 13.3015 9.13888 13.3015C9.13888 13.3015 14.7731 13.3015 16.1817 12.9308C16.9527 12.7232 17.5606 12.1153 17.7682 11.3443C18.1388 9.93574 18.1388 7.01483 18.1388 7.01483C18.1388 7.01483 18.1537 4.07909 17.7682 2.67053Z" fill="#ffffff"></path><path d="M12.03 7L7.34473 4.30149V9.6985L12.03 7Z" fill="#282828"></path></svg>